<?xml version="1.0" standalone="no"?>
<!DOCTYPE svg PUBLIC "-//W3C//DTD SVG 20010904//EN"
 "http://www.w3.org/TR/2001/REC-SVG-20010904/DTD/svg10.dtd">
<svg version="1.0" xmlns="http://www.w3.org/2000/svg"
 width="1588.000000pt" height="653.000000pt" viewBox="0 0 1588.000000 653.000000"
 preserveAspectRatio="xMidYMid meet">

<g transform="translate(0.000000,653.000000) scale(0.100000,-0.100000)"
fill="#000000" stroke="none">
<path d="M10030 6374 c-14 -10 -42 -33 -63 -53 -31 -29 -39 -33 -47 -21 -11
18 -12 16 -34 -42 -23 -63 -36 -69 -37 -16 -1 36 -2 39 -9 18 -4 -14 -8 -47
-9 -73 -1 -29 -5 -46 -11 -42 -5 3 -10 16 -10 28 0 12 -5 29 -11 37 -7 11 -8
-8 -4 -65 6 -77 6 -81 -19 -104 -14 -14 -26 -30 -26 -38 0 -7 -7 -13 -15 -13
-19 0 -19 -11 0 -80 16 -59 14 -70 -10 -50 -10 8 -7 -6 10 -42 29 -64 42 -118
27 -118 -5 0 -15 14 -22 30 -7 17 -14 29 -16 27 -4 -4 65 -310 72 -316 2 -2 4
8 4 22 0 19 4 25 15 21 9 -4 16 3 21 20 3 14 10 26 16 26 5 0 7 -8 5 -17 -12
-44 -17 -112 -9 -117 6 -4 7 -21 2 -43 -11 -46 -7 -53 32 -53 37 0 172 72 146
78 -35 7 -17 20 42 31 47 10 60 16 60 30 0 14 11 21 38 26 l37 8 -27 10 c-43
17 -33 29 17 21 57 -8 58 5 3 34 l-43 22 60 -6 59 -6 -34 28 c-19 15 -37 30
-40 32 -17 12 37 20 110 15 60 -4 89 -2 94 6 5 7 -3 11 -21 12 -15 0 -37 4
-48 8 -16 7 -14 9 14 14 19 4 50 7 70 7 31 1 33 2 17 11 -14 9 -15 13 -6 19
22 14 -76 23 -174 17 l-91 -5 45 19 c25 11 68 31 95 45 l50 24 -38 -5 c-21 -4
-46 -9 -55 -11 -9 -3 6 9 33 27 54 34 110 79 101 79 -4 0 -33 -11 -66 -24 -33
-14 -60 -21 -60 -17 0 4 37 29 83 54 97 56 117 70 117 86 0 15 0 14 -57 -10
-26 -11 -59 -25 -73 -30 l-25 -9 25 19 c14 11 37 26 53 32 15 6 27 15 27 20 0
5 -14 2 -31 -6 -17 -9 -33 -14 -37 -11 -7 8 -12 4 96 65 50 29 92 54 92 56 0
8 -78 -19 -122 -43 -107 -58 -321 -272 -442 -444 -26 -38 -50 -68 -52 -68 -12
0 -1 32 21 58 30 35 31 50 8 68 -16 13 -16 15 -2 24 9 5 27 19 40 30 l24 21
-73 -5 c-45 -3 -70 -1 -67 5 4 5 -1 12 -11 16 -16 6 -15 7 2 20 23 17 34 17
34 -1 0 -27 16 -25 76 5 41 20 50 28 32 25 -39 -5 -35 2 15 25 l42 20 -47 -4
c-27 -3 -48 -1 -48 3 0 4 35 24 78 44 l77 37 -50 -6 -50 -6 32 20 c17 11 51
30 73 41 62 31 43 33 -39 5 -40 -14 -77 -25 -83 -23 -5 2 18 19 51 38 33 19
58 36 57 38 -2 1 -29 -9 -61 -23 -70 -31 -73 -31 -68 -1 6 28 -17 39 -52 26
-31 -12 -32 -3 -3 27 l21 23 -24 1 c-23 1 -22 1 7 14 17 8 36 21 43 29 12 14
10 15 -18 10 -47 -10 -37 2 18 21 27 9 57 25 66 35 18 20 17 20 -18 20 -21 0
-37 2 -37 5 0 3 12 17 28 31 l27 25 -37 -15 c-21 -8 -38 -12 -38 -8 0 3 23 30
52 59 52 53 55 68 8 37z m-120 -484 c0 -5 -15 -16 -34 -24 -58 -24 -66 -46
-67 -181 -1 -75 -4 -111 -9 -95 -10 32 -12 148 -4 228 6 58 8 61 30 56 13 -3
32 1 46 10 26 18 38 20 38 6z m-11 -397 c-26 -60 -34 -67 -25 -24 5 29 30 71
42 71 2 0 -6 -21 -17 -47z"/>
<path d="M9170 6237 c0 -3 16 -24 35 -47 40 -47 45 -66 14 -50 -11 6 -25 10
-31 8 -5 -2 18 -23 52 -47 46 -32 58 -46 48 -52 -10 -7 -8 -13 12 -29 14 -11
28 -20 33 -20 4 0 7 -4 7 -9 0 -5 -19 -7 -42 -5 l-43 5 47 -25 c47 -26 68 -46
49 -46 -23 0 -9 -21 37 -52 l47 -33 -30 -5 c-30 -5 -30 -5 13 -18 56 -17 53
-28 -5 -25 l-48 2 55 -19 c30 -10 63 -19 73 -19 9 -1 17 -5 17 -10 0 -5 -10
-7 -21 -4 -39 11 -2 -36 44 -56 23 -10 48 -26 56 -35 12 -14 11 -16 -9 -16
-18 0 -9 -12 49 -66 71 -66 87 -91 52 -79 -11 3 -21 2 -24 -2 -5 -8 114 -143
126 -143 3 0 0 19 -8 41 -18 49 -19 70 -4 49 10 -13 10 -13 6 0 -2 8 -14 59
-26 113 -16 66 -29 101 -42 110 -10 8 -26 30 -34 51 -11 26 -26 42 -50 52 -34
14 -34 14 -28 64 6 52 -14 147 -28 133 -4 -4 -9 -21 -11 -38 l-4 -30 -12 30
c-7 17 -17 39 -22 50 -9 18 -10 17 -7 -7 6 -40 -9 -34 -33 12 -28 55 -32 50
-8 -12 15 -41 16 -49 4 -39 -8 7 -22 37 -31 66 -11 40 -25 61 -50 81 -22 16
-39 41 -47 65 -14 47 -38 73 -38 40 0 -30 -14 -26 -41 13 -14 21 -26 30 -30
24 -5 -7 -18 -3 -38 11 -17 12 -31 20 -31 18z"/>
<path d="M10117 6167 c-22 -17 -30 -19 -36 -9 -6 10 -13 6 -26 -15 -10 -15
-28 -35 -39 -44 -17 -14 -18 -19 -7 -33 7 -9 17 -16 22 -16 7 0 109 61 109 65
0 1 -12 0 -27 -3 l-28 -5 20 24 c29 34 48 59 44 58 -2 0 -17 -10 -32 -22z"/>
<path d="M9730 6124 c0 -21 5 -46 11 -54 7 -11 8 -1 4 35 -8 61 -15 71 -15 19z"/>
<path d="M11664 6094 c-159 -130 -179 -151 -208 -208 -19 -37 -32 -81 -36
-124 -4 -37 -12 -80 -18 -95 -7 -16 -12 -61 -13 -100 0 -40 -4 -92 -7 -116 -6
-39 -9 -42 -20 -28 -15 17 -13 96 2 130 6 13 5 16 -8 11 -23 -9 -21 46 4 93
11 21 20 43 20 50 0 15 -16 17 -25 3 -3 -6 -20 -17 -37 -26 -34 -18 -35 -19
25 69 21 32 37 61 34 63 -2 2 -16 -5 -30 -17 -30 -22 -31 -21 -18 13 5 13 19
50 32 83 12 33 29 68 37 78 8 9 13 19 10 22 -3 3 -24 -15 -47 -41 -24 -25 -45
-44 -47 -41 -2 2 9 43 26 91 31 93 22 114 -17 36 -11 -25 -34 -56 -50 -70 -42
-36 -68 -156 -68 -310 0 -136 9 -192 30 -183 10 3 15 -1 15 -14 0 -24 57 -194
69 -206 12 -12 22 43 18 107 -3 62 18 73 26 14 4 -24 10 -61 14 -82 l8 -39 76
114 c41 63 84 127 94 142 l18 28 -42 -7 c-23 -4 -41 -3 -41 3 0 5 29 25 65 44
36 18 65 37 65 41 0 4 -10 8 -22 10 -18 2 -7 12 50 43 55 30 68 41 53 43 -29
5 -26 15 10 36 17 10 28 20 26 23 -4 3 -178 -60 -199 -74 -5 -2 -8 0 -8 5 0 5
29 29 65 52 79 52 78 65 -1 20 -42 -24 -55 -27 -50 -15 3 9 6 18 6 21 0 2 30
24 67 49 59 39 64 45 40 45 -41 0 -33 14 23 40 49 23 70 48 30 35 -34 -11 -22
11 23 41 l42 29 -32 3 -32 3 34 32 c41 37 46 55 10 31 -34 -22 -40 -13 -20 26
9 18 15 34 13 36 -2 2 -40 -26 -84 -62z m-245 -684 c-2 -72 -19 -100 -19 -31
0 42 10 101 17 101 2 0 3 -31 2 -70z"/>
<path d="M10934 5805 c18 -42 13 -43 -31 -9 -35 26 -40 25 -23 -7 14 -26 1
-25 -60 6 -27 14 -64 25 -82 25 -31 -1 -28 -4 37 -37 39 -20 66 -37 60 -39 -5
-1 -22 -5 -37 -8 -43 -10 -35 -35 12 -42 42 -7 58 -18 40 -29 -24 -15 -7 -25
41 -25 51 0 89 -13 89 -30 0 -6 -11 -10 -24 -10 -13 0 -43 -7 -66 -15 -51 -18
-106 -21 -77 -4 51 30 -17 31 -135 2 -38 -9 -68 -22 -68 -29 0 -6 -21 -15 -47
-18 -91 -13 -289 -87 -459 -172 -95 -46 -182 -95 -195 -107 -22 -22 -94 -67
-105 -67 -3 0 -3 8 1 19 16 52 -46 81 -190 88 -91 4 -113 1 -237 -30 -155 -40
-212 -68 -306 -153 -48 -43 -62 -62 -58 -77 3 -13 -11 -40 -46 -83 -27 -35
-46 -64 -41 -64 5 0 14 5 21 12 19 19 14 1 -17 -60 -16 -31 -32 -70 -35 -87
l-6 -30 19 25 c45 57 53 66 48 49 -15 -48 -29 -141 -22 -147 4 -4 10 -1 12 6
3 6 9 12 14 12 17 0 9 -30 -20 -83 -43 -76 -64 -158 -58 -224 5 -59 24 -84 43
-58 15 20 20 19 29 -7 6 -17 10 -3 17 52 5 41 12 82 15 90 9 22 22 -55 22
-132 1 -92 21 -88 22 5 0 39 4 81 8 92 7 17 12 13 35 -32 14 -29 28 -53 30
-53 3 0 -20 183 -28 213 -9 37 12 15 34 -35 15 -36 24 -47 27 -35 7 26 19 21
33 -13 26 -64 32 -44 25 80 -5 90 -4 121 4 116 6 -4 11 -16 11 -26 0 -10 5
-31 12 -47 12 -27 12 -26 18 27 l5 55 26 -50 27 -50 -4 83 c-2 45 0 82 5 82 5
0 14 -20 21 -45 15 -54 24 -63 27 -27 15 253 19 268 43 165 6 -29 15 -53 19
-53 4 0 25 18 46 40 58 59 63 49 11 -24 -25 -36 -46 -68 -46 -73 0 -4 34 26
75 67 41 41 77 71 81 68 3 -4 -19 -39 -51 -79 -60 -78 -91 -129 -77 -129 5 0
19 11 32 25 35 37 45 30 20 -12 l-22 -38 31 29 c17 16 34 27 37 23 3 -3 -10
-34 -30 -69 -28 -49 -36 -57 -36 -38 0 14 -4 20 -9 15 -4 -6 -61 -113 -126
-240 -65 -126 -144 -279 -175 -340 -172 -332 -193 -376 -184 -384 5 -4 50 -23
99 -41 50 -18 111 -44 137 -58 26 -13 53 -22 61 -19 17 6 16 1 72 332 24 143
51 298 60 345 8 47 22 132 31 189 16 103 17 104 65 155 45 47 63 50 39 7 -9
-18 -30 -101 -25 -101 1 0 19 29 40 65 21 36 42 65 47 65 11 0 12 1 -27 -106
-35 -97 -44 -154 -24 -154 5 0 17 17 26 38 14 33 16 35 23 17 4 -12 8 -49 9
-83 1 -84 20 -120 21 -39 0 31 5 57 10 57 6 0 10 -8 10 -18 0 -42 33 -125 61
-155 22 -23 29 -26 24 -12 -4 11 -9 48 -10 82 -2 34 -6 66 -9 72 -4 6 -3 11 2
11 5 0 26 -20 47 -46 20 -25 39 -43 42 -41 2 3 -10 28 -27 57 -33 56 -33 78
-1 39 26 -31 26 -18 0 32 -11 23 -18 43 -16 45 2 3 31 -20 63 -51 94 -89 74
-46 -36 77 -95 106 -122 149 -105 166 4 4 43 -31 87 -77 43 -46 81 -81 84 -78
3 3 -13 37 -36 77 -24 39 -40 73 -37 76 2 3 28 -22 57 -55 29 -33 56 -58 61
-55 5 2 -27 61 -71 129 -43 69 -76 125 -72 125 3 0 28 -21 54 -47 26 -26 48
-43 48 -38 0 6 -25 48 -55 95 -30 46 -52 86 -49 89 2 3 28 -19 57 -47 29 -29
56 -52 60 -52 4 0 -2 18 -13 40 -24 47 -19 51 16 13 l26 -28 -5 35 c-3 20 -19
66 -37 103 -36 76 -52 127 -41 127 4 0 22 -21 40 -46 18 -25 35 -43 38 -41 2
3 -19 50 -46 106 -28 56 -48 101 -44 101 4 0 27 -19 50 -42 51 -50 53 -38 13
56 -28 65 -32 104 -6 62 6 -10 20 -33 31 -50 95 -144 305 -538 305 -570 0 -10
-22 -43 -50 -74 -27 -31 -50 -60 -50 -64 0 -13 39 10 84 48 43 37 61 35 51 -3
-3 -14 -2 -22 3 -19 6 3 14 0 19 -7 20 -26 143 -380 162 -467 7 -30 23 -91 36
-135 13 -44 28 -107 33 -140 6 -33 17 -85 27 -115 40 -132 95 -364 88 -371 -4
-4 -160 -72 -347 -150 -186 -79 -340 -148 -343 -154 -2 -7 17 -47 43 -91 26
-43 62 -112 80 -153 18 -40 37 -78 43 -84 7 -7 30 9 73 49 35 33 135 127 223
209 88 82 184 171 212 199 29 27 55 48 58 45 11 -12 54 -252 69 -385 24 -210
39 -186 -119 -182 -74 1 -135 6 -135 10 0 4 25 24 55 44 54 36 72 60 38 50
-10 -2 -56 -12 -103 -21 -138 -27 -272 -54 -321 -66 -28 -6 -81 -7 -133 -3
l-86 7 -43 86 c-188 382 -513 672 -897 800 -136 46 -254 64 -415 64 -164 0
-277 -18 -430 -68 -337 -110 -663 -386 -842 -711 l-34 -63 -87 -3 c-48 -2 -90
-1 -94 2 -10 7 39 109 92 194 36 57 41 70 29 81 -11 11 -448 188 -706 286 -29
11 -53 23 -52 27 4 35 167 496 174 495 6 -2 11 -25 13 -52 2 -40 6 -49 18 -44
12 4 14 0 8 -22 -4 -18 -2 -30 6 -35 11 -7 10 -15 -3 -41 -19 -39 -14 -49 11
-26 32 29 33 19 6 -34 -14 -28 -23 -53 -21 -56 7 -6 56 48 63 70 3 9 10 17 15
17 6 0 7 -9 4 -20 -11 -33 10 -22 23 13 9 22 15 28 21 19 22 -35 61 79 61 180
0 73 10 86 30 38 9 -23 16 -28 25 -20 10 8 14 0 20 -38 7 -55 19 -80 29 -63
11 18 26 13 26 -9 0 -11 4 -20 8 -20 11 0 38 49 46 84 10 42 -11 77 226 -377
45 -87 79 -161 76 -164 -5 -5 -103 47 -271 146 -55 32 -101 57 -103 56 -10 -9
266 -375 282 -375 6 0 29 26 51 57 39 55 235 260 303 317 18 15 32 31 30 36
-3 8 -150 150 -431 414 -70 66 -125 122 -122 124 3 3 14 -3 25 -13 26 -23 25
-14 -1 38 -19 37 -20 40 -4 27 10 -8 38 -41 61 -73 23 -31 45 -53 49 -47 6 10
-15 57 -47 103 -16 22 -17 27 -4 27 8 0 37 -26 65 -57 l51 -57 0 32 c0 41 -52
99 -131 149 -33 20 -59 38 -59 40 0 3 25 1 55 -2 30 -4 55 -5 55 -2 0 3 -30
15 -67 27 -103 33 -101 32 -73 40 52 15 -49 23 -134 11 -111 -15 -110 -15
-129 24 -19 39 -74 83 -161 127 -60 30 -79 31 -55 1 12 -15 12 -16 -2 -11 -10
4 -50 9 -90 12 l-74 6 53 -21 c28 -12 52 -24 52 -28 0 -3 -59 -7 -130 -8 -72
0 -130 2 -130 7 0 4 33 11 73 16 l72 10 -53 12 c-29 7 -74 12 -100 12 l-47 1
38 20 c22 11 37 22 35 24 -7 7 -213 -44 -265 -66 l-52 -21 -27 31 c-31 38 -78
63 -158 86 -68 20 -96 44 -96 83 0 15 -11 51 -25 79 -36 71 -94 113 -212 154
-61 21 -176 89 -151 89 14 0 125 -32 197 -56 11 -3 9 1 -3 15 -10 11 -27 23
-37 26 -30 10 -22 26 9 19 15 -3 36 -8 47 -10 16 -4 14 1 -10 21 l-30 26 30
-7 c17 -4 48 -13 69 -21 62 -21 52 -10 -29 33 -41 21 -75 42 -75 46 0 9 117
-32 210 -73 l65 -29 -40 36 c-22 19 -70 49 -107 67 -37 18 -67 36 -67 40 -2
18 161 -23 228 -57 42 -22 46 -20 25 12 -26 39 -40 48 -129 79 -70 24 -96 27
-202 28 -68 0 -123 2 -123 5 0 3 39 19 88 35 76 26 83 30 54 33 -30 3 -104 -6
-202 -24 l-35 -6 34 26 c19 14 28 26 21 26 -31 0 -151 -53 -226 -100 l-79 -49
-35 21 c-78 45 -239 77 -397 78 -66 0 -68 -13 -5 -26 l47 -10 -50 -8 c-27 -5
-81 -22 -120 -37 l-70 -29 82 6 c52 4 83 2 83 -4 0 -5 -15 -12 -33 -15 -57 -9
-307 -137 -268 -137 8 0 -5 -13 -30 -28 -50 -33 -189 -159 -189 -173 0 -12 52
11 72 33 9 10 27 18 39 18 18 0 20 3 11 12 -23 23 -12 28 25 13 33 -14 38 -14
54 1 10 9 22 13 28 10 5 -4 14 1 19 10 7 13 13 14 30 5 18 -10 20 -15 11 -35
-9 -18 -22 -26 -57 -31 -26 -4 -89 -22 -142 -41 -75 -27 -104 -33 -137 -28
-24 3 -43 10 -43 14 0 4 -29 39 -65 78 -36 38 -65 78 -65 88 0 11 -12 30 -25
43 -36 34 -31 48 6 14 59 -53 79 -78 75 -90 -3 -6 11 -23 30 -38 l34 -26 0 23
1 23 13 -24 c10 -18 15 -20 19 -10 3 8 6 1 7 -16 l1 -30 15 28 c9 17 13 39 10
53 -5 17 -2 26 9 30 8 4 15 18 15 33 0 15 7 37 16 49 8 12 10 22 5 22 -20 0
-11 42 14 72 29 34 27 45 -5 28 -36 -19 -36 -2 1 36 30 32 31 35 11 29 -22 -6
-22 -5 8 44 18 28 36 53 41 56 5 4 9 11 9 16 0 6 -13 1 -29 -10 -16 -12 -31
-21 -34 -21 -3 0 8 25 25 55 16 30 27 55 23 55 -3 0 -28 -22 -55 -49 -49 -49
-94 -136 -105 -205 -13 -84 -13 -106 0 -156 8 -30 14 -66 14 -80 0 -21 -3 -18
-15 14 -7 21 -11 42 -8 47 3 5 0 9 -5 9 -6 0 -11 18 -11 40 0 27 -5 43 -15 46
-9 4 -15 19 -15 38 0 22 -3 27 -9 17 -7 -11 -12 -4 -20 25 -6 21 -11 45 -11
52 0 8 -6 12 -12 9 -7 -2 -23 14 -36 37 -13 24 -21 32 -18 19 5 -28 -1 -29
-27 -5 -19 16 -20 16 -14 0 9 -24 5 -23 -47 13 -24 17 -49 30 -56 27 -7 -2 4
-15 24 -28 40 -28 45 -40 16 -40 -30 0 -24 -19 10 -34 22 -9 27 -15 19 -23 -9
-9 -2 -13 24 -18 20 -4 41 -13 48 -21 9 -11 6 -14 -19 -14 -16 0 -44 -3 -62
-7 -28 -5 -32 -4 -27 10 6 15 -3 17 -68 17 -41 0 -75 -4 -75 -8 0 -5 -44 -12
-97 -15 -129 -8 -340 -63 -450 -116 -23 -12 -44 -21 -45 -21 -2 0 -4 12 -3 28
0 23 -8 31 -50 52 -46 23 -61 25 -191 25 l-140 0 -80 -40 c-50 -26 -83 -49
-91 -65 -7 -14 -29 -40 -50 -58 -21 -19 -32 -31 -26 -27 19 10 16 -3 -11 -38
-13 -18 -29 -43 -36 -57 l-13 -25 27 24 c14 14 28 23 29 20 2 -2 -4 -23 -15
-46 -16 -37 -24 -43 -71 -57 -29 -9 -73 -29 -96 -46 l-43 -31 -36 25 c-54 37
-250 118 -281 116 -3 -1 10 -15 29 -32 32 -28 33 -30 10 -23 -49 13 -120 17
-177 10 l-58 -8 74 -18 c41 -11 76 -21 78 -22 2 -2 -34 -7 -79 -10 -123 -9
-236 -53 -332 -128 -60 -48 -47 -49 56 -4 82 36 153 57 163 47 3 -3 -25 -22
-62 -43 -38 -20 -86 -53 -108 -73 l-40 -36 134 61 c174 78 182 72 28 -22 -40
-24 -34 -24 38 1 58 20 58 20 40 0 -10 -11 -16 -20 -14 -20 2 0 29 7 59 15 30
8 57 15 60 15 3 0 -22 -18 -55 -40 -33 -22 -58 -40 -55 -40 4 0 48 13 100 30
52 16 96 28 97 26 8 -8 -82 -68 -133 -89 -100 -40 -179 -99 -208 -155 -22 -43
-48 -154 -38 -164 6 -6 22 8 41 33 l31 43 0 -39 0 -40 86 85 c68 67 82 78 69
51 -12 -24 -13 -31 -3 -25 7 4 33 21 57 36 25 15 49 28 54 28 4 0 -17 -32 -48
-71 -58 -75 -120 -192 -132 -250 l-6 -34 26 18 c31 20 31 20 12 -53 l-14 -55
29 35 c27 32 29 33 30 12 0 -13 -18 -42 -41 -67 -26 -28 -36 -45 -26 -45 8 0
20 7 27 15 18 22 43 -1 35 -33 -6 -26 -7 -26 60 18 65 43 72 45 41 12 -33 -36
-29 -39 16 -16 27 14 30 14 25 1 -5 -14 -2 -14 28 -1 49 20 52 18 19 -17 -26
-28 -26 -30 -6 -19 46 23 33 0 -36 -68 l-71 -69 -43 28 c-23 16 -66 34 -95 40
-66 15 -68 29 -5 29 39 1 44 2 28 12 -10 6 -47 13 -82 16 -68 5 -78 12 -42 30
62 30 -86 0 -194 -39 l-57 -21 -44 36 c-50 41 -102 62 -202 81 l-70 14 25 -21
25 -20 -27 6 c-36 8 -139 -4 -132 -15 3 -5 17 -9 32 -9 15 0 38 -3 52 -7 19
-5 7 -10 -50 -19 -41 -6 -97 -22 -124 -35 -53 -24 -144 -104 -133 -116 4 -3
15 1 24 10 26 23 143 79 156 74 7 -2 2 -9 -11 -16 -30 -16 -102 -81 -102 -92
0 -4 32 12 72 37 90 55 107 56 48 3 -40 -36 -41 -38 -12 -22 24 13 35 15 40 6
5 -8 13 -9 22 -3 28 18 33 10 10 -15 -29 -31 -24 -31 45 -1 92 41 73 19 -69
-84 -59 -43 -86 -95 -86 -165 1 -63 2 -63 37 -8 11 17 12 17 12 -4 1 -35 12
-28 55 33 28 40 41 52 47 43 6 -11 13 -9 32 9 36 34 40 27 13 -25 -27 -55 -56
-146 -56 -180 0 -17 4 -21 17 -16 14 5 15 1 10 -35 -6 -46 4 -55 21 -19 10 21
11 22 11 1 1 -31 21 -84 32 -84 5 0 9 26 9 57 0 44 3 54 12 45 21 -21 28 -13
28 28 0 22 5 40 10 40 6 0 10 -4 10 -10 0 -23 19 -8 22 18 2 19 8 27 21 26 9
-1 17 4 17 12 0 20 32 84 43 84 5 0 7 -21 3 -47 -3 -27 -10 -156 -15 -288 -10
-232 -15 -318 -27 -416 l-5 -46 -87 -18 c-48 -9 -114 -24 -147 -33 -33 -8 -88
-14 -122 -13 -58 2 -63 1 -63 -19 0 -13 -12 -26 -35 -37 -36 -17 -60 -63 -37
-71 26 -8 9 -19 -45 -31 -78 -17 -88 -23 -91 -59 -3 -26 2 -35 28 -51 l32 -19
-25 -17 c-34 -22 -51 -66 -43 -112 4 -21 20 -93 37 -160 16 -67 35 -161 43
-210 16 -107 20 -117 52 -133 15 -8 28 -28 34 -51 8 -28 18 -40 41 -48 37 -13
30 -31 -12 -31 -26 0 -30 -4 -27 -22 2 -15 13 -24 38 -31 62 -16 77 -41 35
-57 -14 -5 -25 -14 -25 -19 0 -15 31 -29 52 -23 36 9 78 -51 44 -64 -22 -8
-27 -46 -9 -66 9 -10 30 -18 47 -19 53 -2 81 -13 81 -34 0 -15 -8 -20 -32 -21
-49 -2 -63 -11 -63 -39 0 -34 48 -55 127 -55 57 0 103 -18 103 -41 0 -5 -17
-16 -37 -24 -21 -9 -60 -26 -88 -38 l-50 -24 60 -22 c35 -13 113 -29 185 -37
126 -15 182 -26 233 -46 27 -11 27 -11 -49 -46 -69 -31 -81 -34 -109 -23 -71
25 -145 -1 -131 -46 8 -26 16 -28 196 -48 250 -28 393 -46 402 -51 16 -10 8
-44 -14 -57 -13 -8 -53 -22 -90 -32 -61 -15 -68 -20 -68 -42 l0 -25 338 7
c446 9 500 9 684 0 176 -9 188 -5 188 51 0 65 -63 80 -180 43 -52 -16 -81 -19
-145 -14 -44 3 -158 7 -253 10 -95 3 -177 7 -183 10 -5 4 -9 17 -9 30 0 33 24
38 164 34 241 -6 523 -2 626 9 58 7 173 16 255 22 173 11 255 30 255 60 0 28
-72 46 -254 64 -143 15 -175 23 -163 44 4 5 66 12 139 15 73 3 156 11 183 16
28 5 106 17 175 25 207 26 200 25 200 52 0 13 -3 25 -7 25 -5 1 -35 3 -68 4
-33 2 -87 13 -119 24 -33 12 -67 21 -78 21 -26 0 -22 15 8 29 17 7 52 9 103 5
61 -5 90 -3 130 11 36 12 105 19 225 24 164 7 196 12 196 30 0 12 -94 30 -215
41 -158 15 -196 20 -191 29 3 4 80 14 173 22 309 26 969 14 1125 -21 32 -7 32
-7 8 -13 -14 -3 -97 -11 -185 -17 -162 -10 -284 -27 -298 -39 -16 -15 461 -60
641 -61 45 0 82 -4 82 -9 0 -13 -20 -18 -120 -31 -106 -14 -120 -18 -120 -35
0 -34 39 -38 260 -30 118 4 242 6 275 4 143 -7 140 -7 140 26 l0 30 -82 0
c-44 0 -84 3 -88 7 -4 3 11 18 32 32 36 25 43 26 193 27 170 0 225 11 225 44
0 25 -34 32 -212 43 -73 5 -136 11 -140 15 -16 17 20 22 185 28 180 6 227 15
239 45 8 21 -30 54 -62 54 -13 0 -33 9 -46 20 l-24 19 90 3 c50 1 125 3 168 3
58 0 80 4 87 15 13 21 -9 40 -56 46 -48 7 -94 24 -94 34 0 5 39 11 88 15 120
9 117 8 117 30 0 16 -10 21 -52 28 -69 11 -68 27 1 27 30 0 61 3 70 6 19 7 21
44 3 44 -8 0 -22 9 -31 19 -17 19 -17 20 23 32 39 12 54 33 29 41 -8 3 -7 11
4 29 9 13 21 40 27 60 8 26 21 41 41 49 17 7 30 15 31 19 0 3 2 23 4 45 4 46
26 71 80 88 47 15 58 43 21 52 -30 7 -31 12 -12 58 l15 35 660 6 c362 4 666
10 675 13 9 3 16 2 16 -3 0 -12 -247 -109 -340 -133 -125 -33 -211 -36 -329
-11 -56 12 -107 21 -113 19 -7 -3 29 -24 78 -49 l89 -44 125 0 125 0 195 69
c272 95 370 123 477 137 101 12 210 2 299 -28 l47 -16 -24 -20 c-21 -17 -32
-18 -94 -11 -38 5 -126 9 -195 9 -156 -1 -190 -11 -420 -119 -96 -46 -202 -91
-235 -100 -84 -25 -83 -24 -51 -25 45 -1 138 26 290 86 195 77 267 96 338 91
58 -4 85 -16 59 -26 -8 -3 -85 -40 -170 -84 -194 -98 -262 -125 -369 -143
-133 -23 -176 -21 -462 30 -42 8 -31 -2 43 -41 94 -49 165 -66 297 -71 157 -7
232 11 475 110 292 118 339 131 490 131 143 0 186 -11 285 -74 90 -58 48 -87
-73 -51 -143 42 -262 46 -409 15 -72 -15 -173 -52 -210 -78 -29 -21 -17 -20
66 4 38 10 113 25 167 32 83 10 111 9 186 -4 48 -8 106 -23 127 -32 37 -15 38
-18 24 -33 -20 -19 -50 -20 -150 -3 -58 9 -96 10 -158 1 -118 -16 -127 -27
-28 -34 89 -6 175 -24 184 -38 6 -11 -76 -52 -146 -73 -78 -24 -226 -31 -360
-17 -63 6 -126 14 -140 17 -41 10 -3 -13 70 -41 109 -41 197 -58 310 -57 144
0 229 24 425 122 327 161 525 217 735 207 133 -6 233 -32 418 -108 297 -123
396 -141 533 -99 66 20 169 65 169 74 0 2 -33 -3 -72 -10 -197 -35 -366 -2
-529 106 -95 62 -314 166 -394 187 -109 27 -275 23 -390 -12 -140 -41 -134
-41 -189 1 -45 35 -48 38 -28 45 12 5 61 13 109 19 49 6 108 14 133 17 l45 6
-40 8 c-68 13 -227 17 -295 8 -65 -9 -210 5 -210 21 0 16 163 43 292 48 169 5
228 -6 463 -93 209 -77 344 -112 484 -125 157 -15 346 8 481 57 46 17 107 53
65 39 -82 -29 -427 -32 -535 -6 -99 24 -120 31 -115 39 3 5 71 21 152 36 82
15 164 31 183 36 45 11 -335 2 -445 -11 -80 -10 -115 -7 -115 10 0 13 118 46
250 69 63 11 140 24 170 30 43 7 10 9 -145 7 -165 -2 -218 -7 -302 -26 l-102
-22 -78 27 c-43 16 -82 32 -87 37 -6 4 24 8 65 8 40 0 252 5 469 10 1360 33
3853 58 3935 39 28 -6 116 -38 196 -70 157 -63 244 -89 296 -89 18 0 33 -4 33
-10 0 -5 -4 -10 -9 -10 -5 0 -27 -18 -50 -40 -48 -47 -53 -83 -19 -138 43 -70
138 -88 216 -40 80 49 82 95 7 176 -30 33 -55 62 -55 66 0 3 94 6 209 6 257 0
265 -3 178 -84 -73 -67 -76 -99 -19 -156 42 -42 89 -57 147 -46 43 8 100 57
109 91 9 34 -17 85 -54 110 -35 23 -50 62 -29 77 20 14 336 3 380 -14 31 -11
35 -16 29 -34 -5 -12 -24 -31 -42 -42 -35 -22 -58 -58 -58 -90 0 -28 38 -81
72 -102 18 -11 50 -20 71 -20 69 0 157 63 157 112 0 31 -28 76 -60 95 -36 21
-47 48 -28 70 11 14 33 15 154 10 198 -7 228 8 290 148 43 98 74 238 74 335 0
105 -10 164 -52 293 -58 184 -81 199 -307 207 -134 4 -155 7 -165 23 -9 15 -3
24 39 61 43 38 49 48 48 80 -2 77 -65 122 -161 114 -65 -6 -103 -32 -120 -83
-17 -52 -5 -83 49 -121 24 -17 45 -38 47 -47 6 -32 -37 -41 -231 -45 -221 -4
-226 -2 -153 79 37 41 46 58 46 88 0 20 -7 47 -16 59 -20 28 -85 62 -120 62
-40 0 -111 -37 -134 -70 -33 -47 -26 -78 31 -132 89 -87 59 -101 -197 -96 -95
2 -176 7 -181 11 -4 5 10 25 32 45 86 78 94 115 37 172 -42 42 -89 57 -149 45
-51 -9 -113 -72 -113 -113 0 -35 32 -77 84 -113 20 -13 36 -27 36 -31 0 -14
-69 -30 -160 -38 -95 -8 -130 -19 -205 -65 -84 -52 -156 -67 -325 -67 -264 0
-1573 23 -1607 28 -20 3 -33 11 -33 19 0 19 -9 19 -53 0 -20 -8 -53 -15 -72
-15 -33 0 -36 2 -30 23 l6 22 -17 -23 c-19 -25 -54 -30 -54 -6 0 9 17 46 38
82 47 85 63 122 52 122 -19 0 -122 -106 -156 -161 l-37 -59 -53 0 c-29 0 -55
4 -58 9 -14 23 -56 186 -70 272 -58 362 -81 716 -66 1036 11 250 29 381 72
543 17 63 33 127 36 143 2 15 8 30 13 33 14 8 10 -66 -6 -120 -8 -27 -15 -61
-15 -75 0 -22 3 -19 20 18 11 24 22 42 25 40 2 -3 0 -31 -4 -63 -4 -32 -5 -72
-1 -90 5 -17 8 -24 9 -15 1 8 8 24 17 35 14 18 15 14 10 -52 -3 -40 -3 -93 1
-119 l6 -47 15 34 15 33 8 -65 c5 -35 14 -86 21 -113 l12 -49 12 39 11 38 12
-28 c6 -16 11 -36 11 -45 0 -21 37 -102 45 -102 4 0 6 17 5 38 -1 20 -1 42 -1
47 1 6 29 -39 62 -98 34 -59 63 -106 66 -104 2 2 -12 48 -32 102 -19 54 -33
100 -30 103 2 3 24 -17 49 -44 l45 -49 -9 35 c-4 19 -24 69 -43 110 -19 41
-38 86 -42 100 -5 22 -1 20 29 -15 20 -22 36 -36 36 -32 0 5 -40 94 -90 199
-49 106 -88 194 -85 196 7 7 1 17 104 -175 51 -95 94 -173 96 -173 11 0 -63
198 -105 281 -37 71 -17 61 53 -28 37 -48 67 -81 67 -74 0 7 -29 60 -65 117
-35 57 -61 104 -57 104 4 0 32 -30 62 -67 l55 -66 3 31 c2 17 -4 44 -12 61
-20 38 -20 55 -1 47 8 -3 15 -1 15 5 0 9 -108 189 -178 297 -9 14 -10 22 -3
22 6 0 37 -41 70 -91 34 -54 61 -87 65 -80 4 6 12 9 17 6 14 -9 11 23 -7 56
-12 24 -14 48 -9 107 14 163 47 170 53 12 3 -55 8 -98 11 -95 4 2 14 44 21 92
21 142 33 125 26 -37 l-5 -145 27 80 c15 44 28 71 29 60 1 -11 5 -64 8 -118 4
-55 10 -95 15 -90 4 4 12 41 19 82 6 40 18 85 26 100 13 24 14 20 15 -66 0
-50 4 -94 9 -97 5 -3 16 15 26 39 9 25 20 45 23 45 4 0 6 -37 4 -82 -2 -80 -2
-82 13 -55 9 15 19 27 24 27 4 0 11 -38 14 -84 3 -46 12 -99 20 -117 l14 -34
6 30 c3 17 11 56 17 88 6 31 15 57 20 57 9 0 40 -73 40 -96 0 -8 5 -12 11 -9
6 4 8 13 5 21 -3 8 -1 14 3 14 5 0 28 -57 52 -127 44 -136 69 -192 102 -233
l20 -25 -7 29 c-26 110 -15 114 40 15 34 -62 39 -68 44 -48 10 39 -6 124 -34
185 -15 31 -24 59 -22 61 2 2 25 -10 52 -26 26 -17 49 -29 52 -27 2 2 -37 56
-87 120 -50 64 -86 116 -80 116 6 0 34 -16 61 -36 28 -19 52 -33 54 -31 2 2
-29 48 -71 103 -90 119 -97 138 -30 94 71 -47 51 -8 -42 83 -64 62 -113 127
-97 127 3 0 40 -20 81 -45 40 -25 78 -45 83 -45 23 0 5 18 -71 74 -69 51 -77
60 -63 70 15 11 15 14 -2 31 -10 10 -48 32 -84 49 l-65 31 53 3 c28 2 52 7 52
13 0 12 -71 44 -141 63 -31 9 -68 25 -83 37 -33 26 -66 89 -66 126 l0 27 41
-39 41 -40 -7 33 c-4 17 -4 32 -1 32 4 0 20 -15 36 -32 31 -35 39 -25 16 20
-18 36 -28 82 -19 82 5 0 19 -16 32 -35 13 -20 26 -34 28 -32 2 2 -8 30 -22
61 -33 75 -20 65 51 -39 32 -47 59 -83 62 -81 2 3 -4 28 -13 56 -9 28 -15 53
-12 56 2 3 28 -38 57 -91 29 -52 55 -93 58 -91 2 3 -10 44 -27 92 -35 97 -34
94 -23 94 4 0 39 -58 77 -130 39 -71 71 -126 73 -121 2 5 -13 50 -32 100 -34
88 -54 161 -43 161 3 0 27 -30 53 -67 26 -38 50 -72 54 -76 18 -20 -6 55 -41
132 -22 46 -38 86 -36 88 2 2 43 -60 92 -137 48 -77 91 -143 95 -145 4 -3 -16
55 -46 127 -29 73 -51 134 -49 137 7 6 5 10 85 -141 54 -101 78 -138 92 -138
10 0 18 5 18 12 0 6 -27 63 -61 125 -33 63 -59 117 -56 119 2 2 32 -32 67 -76
34 -45 64 -79 67 -77 2 3 -1 26 -8 51 -11 44 -6 73 9 49 24 -38 178 -221 180
-214 2 5 -9 35 -23 66 -14 32 -23 60 -21 62 3 3 17 -15 32 -39 72 -115 94
-148 99 -148 3 0 -2 17 -11 38 -16 35 -31 112 -22 112 3 0 26 -34 52 -75 26
-41 56 -80 67 -85 29 -16 24 4 -12 55 -46 64 -35 85 19 34 24 -23 46 -39 49
-35 3 3 0 26 -7 51 -10 36 -27 59 -79 106 -42 39 -66 69 -66 83 0 17 -22 32
-109 77 -60 31 -116 65 -125 77 -22 29 -57 40 -156 51 -92 11 -288 2 -225 -10
30 -6 28 -7 -21 -8 -127 -3 -317 -50 -432 -107 -59 -29 -207 -119 -207 -126 0
-3 23 -9 50 -13 28 -4 50 -11 50 -15 0 -5 -25 -12 -56 -16 -33 -4 -58 -12 -61
-20 -3 -8 -18 -14 -34 -14 -25 0 -30 -5 -43 -47 -8 -27 -15 -39 -15 -29 -3 76
-121 -255 -200 -559 -77 -299 -112 -514 -132 -821 -20 -303 6 -751 61 -1049
10 -55 15 -103 12 -107 -4 -3 -45 -3 -92 0 -74 6 -85 10 -88 27 -2 11 -9 26
-15 33 -6 8 -12 32 -13 55 -1 23 -13 69 -26 102 -14 33 -35 107 -47 165 -12
58 -31 138 -43 179 l-20 75 86 84 c48 47 85 86 83 88 -1 2 -41 -13 -87 -32
-46 -18 -87 -34 -91 -34 -12 0 -39 79 -39 113 0 17 -9 52 -20 76 -11 24 -20
60 -20 82 0 21 -4 41 -10 44 -5 3 -10 21 -10 38 0 18 -9 64 -19 102 -11 39
-27 99 -36 135 -37 152 -129 408 -216 608 -23 52 -23 53 -5 87 34 63 68 38 41
-31 l-16 -39 20 25 c11 14 30 46 42 73 12 26 27 47 32 47 5 0 7 -25 5 -56 l-3
-55 21 27 22 27 9 -64 9 -64 18 73 c10 40 20 72 21 70 2 -2 5 -29 9 -62 6 -70
11 -78 21 -34 7 33 7 33 15 8 4 -14 9 -41 10 -60 1 -33 2 -34 12 -12 7 13 17
21 26 17 7 -3 22 -5 33 -5 11 0 32 -12 47 -27 15 -15 32 -27 37 -26 6 2 27
-23 48 -55 l38 -57 -6 45 c-4 25 -15 59 -25 77 -10 18 -19 50 -18 72 0 26 -7
49 -21 67 -11 15 -21 32 -21 39 0 7 -7 18 -15 25 -12 10 -12 18 5 58 37 93 95
207 98 192 1 -9 -4 -55 -11 -103 -8 -48 -11 -87 -6 -87 4 0 22 38 41 85 18 47
36 85 41 85 4 0 7 -21 7 -47 l1 -48 15 27 c10 19 19 25 30 21 14 -5 15 -3 5
15 -14 26 -14 42 -1 42 6 0 10 -9 10 -20 0 -35 15 -22 35 31 25 65 35 70 35
20 0 -23 4 -41 8 -41 4 0 19 30 32 66 14 36 28 68 33 71 4 2 7 -31 7 -73 0
-43 4 -74 8 -69 5 6 19 45 33 88 24 79 32 90 44 60 5 -14 13 -2 32 46 13 35
38 82 55 103 l31 39 -39 42 c-53 55 -68 68 -151 129 -40 30 -72 61 -72 71 -1
9 -11 25 -23 35 -47 38 -90 84 -83 90 4 4 13 -2 20 -12 8 -10 33 -27 55 -37
58 -26 121 -81 109 -95 -7 -8 7 -21 46 -43 30 -17 57 -31 59 -31 3 0 0 14 -6
31 -15 45 -3 47 22 2 27 -50 16 -6 -16 63 -13 28 -24 54 -24 57 0 4 -9 16 -20
27 -11 11 -21 31 -21 45 -1 14 -3 30 -4 35 -1 6 -3 14 -4 19 0 5 -9 11 -20 14
-12 3 -20 18 -25 48 -7 41 -8 43 -21 25 -13 -17 -17 -13 -49 55 -19 41 -35 66
-35 57 -2 -29 -14 -21 -60 37 -24 30 -46 55 -48 55 -2 0 3 -16 11 -35z m209
-315 c-6 -6 -43 38 -43 52 0 5 11 -4 24 -19 13 -15 22 -30 19 -33z m-223 40
c18 -12 2 -12 -25 0 -13 6 -15 9 -5 9 8 0 22 -4 30 -9z m-48 -82 c29 -22 55
-43 57 -45 2 -1 2 -6 -1 -9 -10 -9 -61 22 -97 60 -47 49 -25 45 41 -6z m91
-10 c27 -21 56 -42 65 -47 26 -15 8 -23 -24 -11 -33 13 -67 42 -97 84 -24 34
-13 29 56 -26z m-113 -52 c0 -6 -20 10 -45 34 -25 24 -45 49 -45 54 0 6 20
-10 45 -34 25 -24 45 -49 45 -54z m-60 -8 c0 -10 -21 -10 -35 0 -13 9 -65 79
-65 87 0 3 23 -13 50 -36 28 -23 50 -46 50 -51z m-250 -13 c42 -43 43 -45 25
-60 -11 -8 -24 -15 -29 -15 -15 0 -46 32 -46 47 0 10 6 10 28 -4 l27 -18 -26
35 c-55 76 -46 83 21 15z m-175 -46 c5 -7 -8 -8 -41 -3 -64 9 -68 14 -11 14
25 0 49 -5 52 -11z m-846 -128 c-132 -47 -244 -144 -347 -298 -40 -60 -50 -68
-26 -20 78 153 250 305 380 336 72 17 69 10 -7 -18z m1269 -7 c-2 -39 -15 -54
-24 -30 -8 21 3 66 17 66 5 0 9 -16 7 -36z m-463 -34 c9 -27 15 -66 13 -87 -5
-61 -37 -57 -205 26 -77 38 -144 75 -148 81 -4 6 9 5 31 -5 33 -14 39 -14 46
-1 7 13 16 11 61 -11 28 -15 61 -34 71 -42 15 -13 20 -13 24 -3 3 10 15 4 38
-19 34 -33 34 -33 34 -8 1 24 1 24 16 4 l16 -20 -6 20 c-8 29 -25 109 -26 118
0 23 20 -9 35 -53z m769 31 l29 23 -5 -22 c-7 -26 8 -29 41 -6 23 16 23 16 17
-13 -7 -28 -5 -29 22 -25 31 4 72 -12 72 -28 0 -16 -64 -11 -135 11 -68 21
-133 27 -157 14 -7 -4 7 13 32 37 l45 43 5 -28 5 -29 29 23z m-168 -18 c-7
-27 -44 -68 -53 -59 -7 6 40 86 51 86 4 0 5 -12 2 -27z m-94 -45 c-2 -10 -10
-22 -17 -28 -22 -19 -27 6 -8 45 14 30 18 33 24 18 3 -10 4 -25 1 -35z m852
23 c26 -27 31 -61 8 -61 -8 0 -52 71 -52 84 0 14 18 4 44 -23z m-46 -125 c26
-13 54 -32 62 -41 8 -9 -25 2 -73 26 -48 24 -87 47 -87 51 0 9 32 -3 98 -36z
m-1495 -113 c12 -78 12 -93 0 -93 -31 0 -79 118 -67 165 9 37 24 30 25 -12 1
-42 4 -37 15 22 8 46 9 43 27 -82z m453 72 c7 -29 1 -41 -15 -30 -14 8 -14 55
-1 55 5 0 12 -11 16 -25z m715 -92 c-6 -49 -11 -143 -11 -211 0 -90 -3 -121
-11 -116 -15 9 -6 268 12 371 17 93 23 63 10 -44z m-1798 76 c5 -17 9 -19 26
-10 40 22 34 10 -24 -49 -33 -33 -63 -60 -67 -60 -9 0 -11 71 -2 94 3 8 12 12
19 10 7 -3 16 4 20 15 8 27 21 27 28 0z m686 -37 c-1 -9 0 -53 1 -97 1 -81 18
-83 19 -2 1 42 20 51 22 10 2 -51 -16 -153 -27 -153 -2 0 -13 9 -24 20 -22 22
-25 61 -13 194 4 55 9 73 15 62 5 -9 8 -24 7 -34z m404 -42 c-42 -40 -63 -50
-63 -30 0 10 87 70 99 70 4 0 -13 -18 -36 -40z m134 -33 c-3 -8 -15 -51 -27
-96 -24 -86 -33 -100 -55 -81 -12 10 -12 17 1 52 19 56 65 138 77 138 5 0 7
-6 4 -13z m-7128 -122 c0 -5 -11 4 -24 20 -14 17 -25 35 -25 40 0 6 11 -3 25
-20 13 -16 24 -34 24 -40z m45 -4 c-7 -8 -54 42 -54 58 0 9 11 2 29 -19 16
-19 27 -37 25 -39z m-237 -16 c-6 -16 -39 -18 -48 -3 -14 21 -10 32 6 18 19
-16 19 -7 0 33 l-16 32 31 -35 c16 -19 29 -39 27 -45z m153 13 c0 -5 -4 -8
-10 -8 -9 0 -40 52 -40 67 1 10 50 -49 50 -59z m160 -32 c0 -6 -16 6 -35 26
-19 21 -35 43 -35 50 1 7 16 -5 35 -26 19 -22 35 -44 35 -50z m-1037 67 c-7
-2 -19 -2 -25 0 -7 3 -2 5 12 5 14 0 19 -2 13 -5z m9276 -61 c46 -68 107 -187
131 -257 10 -27 21 -58 25 -67 4 -11 3 -18 -4 -18 -6 0 -11 6 -11 13 0 18
-142 304 -174 350 -14 21 -26 40 -26 43 0 13 24 -12 59 -64z m-9363 37 c-53
-21 -82 -40 -161 -102 l-50 -39 56 54 c58 57 147 108 183 107 12 0 1 -8 -28
-20z m1785 -42 c-1 -12 -15 -9 -19 4 -3 6 1 10 8 8 6 -3 11 -8 11 -12z m-1436
-99 c54 -146 115 -338 115 -363 0 -14 -16 -33 -46 -54 -54 -39 -52 -51 5 -22
52 27 65 27 51 1 -8 -16 -8 -20 3 -20 9 0 17 -15 21 -37 29 -167 47 -327 56
-493 6 -107 15 -244 20 -305 13 -156 11 -410 -4 -542 -7 -62 -15 -115 -18
-118 -3 -3 -14 22 -24 57 l-19 63 -5 -95 -5 -95 -28 48 c-15 26 -31 47 -34 47
-3 0 -3 -29 0 -65 6 -63 5 -65 -13 -55 -23 13 -27 -2 -5 -20 8 -7 15 -19 15
-28 0 -12 -7 -9 -27 10 -54 50 -93 58 -58 12 20 -27 19 -37 -4 -24 -33 17 -46
12 -26 -10 18 -20 17 -20 -26 -21 -24 -1 -55 -4 -68 -8 -22 -6 -21 -7 13 -19
20 -7 36 -17 36 -21 0 -4 -100 -15 -222 -25 -123 -9 -299 -24 -391 -31 -92 -8
-177 -15 -187 -15 -20 0 -20 10 -20 389 0 320 2 391 14 400 11 9 16 5 25 -20
6 -18 11 -43 11 -56 0 -20 4 -23 20 -18 17 5 20 2 20 -26 0 -27 2 -30 15 -19
13 11 15 6 15 -31 1 -41 2 -43 15 -25 22 29 27 15 17 -48 -8 -53 -8 -56 7 -42
9 9 21 33 27 54 11 34 13 35 19 15 4 -13 11 -23 16 -23 5 0 6 7 3 15 -4 8 -3
27 0 41 6 21 9 24 21 14 13 -11 15 -3 15 51 0 66 -7 97 -34 162 -19 43 -6 49
26 12 15 -17 25 -22 33 -15 9 7 20 -4 39 -40 28 -51 40 -60 50 -37 4 7 8 8 11
2 29 -55 40 -43 40 44 0 81 -24 124 -94 168 -91 57 -112 102 -25 53 54 -30 59
-27 25 14 -15 18 -15 19 4 14 11 -3 29 -9 39 -14 14 -5 17 -4 12 4 -10 17 6
15 30 -3 36 -27 38 -15 4 20 -47 48 -24 44 49 -10 34 -25 61 -40 61 -35 0 6
-22 33 -50 61 -27 27 -50 52 -50 55 0 8 73 -25 123 -56 34 -21 45 -25 38 -12
-26 47 -114 106 -199 132 l-57 17 55 8 55 9 -40 7 c-22 4 -62 8 -90 9 l-50 1
24 19 c26 22 17 24 -42 11 -33 -8 -38 -7 -32 7 20 54 13 273 -11 337 -13 33
20 11 51 -35 28 -43 29 -44 35 -20 l6 25 16 -30 c8 -16 23 -56 33 -87 10 -32
22 -58 27 -58 4 0 13 12 19 28 l11 27 17 -38 17 -39 22 54 c46 110 19 212 -76
296 -32 27 -68 68 -81 92 -26 47 -25 47 71 -22 36 -27 69 -48 73 -48 4 0 -9
23 -29 50 -20 28 -36 53 -36 56 0 3 23 -11 52 -32 l51 -38 -7 28 c-6 25 -5 26
13 16 11 -5 26 -18 33 -28 7 -10 21 -21 32 -25 14 -6 17 -15 14 -42 -2 -19 0
-35 4 -35 4 0 8 11 8 24 0 14 5 28 10 31 6 4 10 -12 10 -42 1 -29 9 -62 21
-83 l19 -35 -1 40 c-3 101 7 122 31 65 7 -17 17 -33 23 -37 6 -4 7 -1 2 8 -11
16 -14 109 -4 109 3 0 19 -18 34 -40 41 -60 42 -41 1 29 -38 65 -34 80 7 31
45 -54 51 -29 11 50 -34 67 -24 76 15 14 39 -62 39 -45 1 51 -37 92 -38 112
-5 62 14 -20 28 -37 30 -37 2 0 -9 32 -25 70 -32 78 -27 91 10 30 14 -22 29
-40 33 -40 5 0 5 4 2 10 -8 13 -15 50 -10 50 3 0 11 -12 19 -27 l15 -28 1 26
c0 14 -7 49 -16 78 -8 29 -14 62 -12 74 3 20 5 20 20 -8 21 -38 22 -23 3 41
-21 69 -19 74 14 34 l29 -35 -8 45 c-5 25 -12 53 -15 63 -4 9 -3 17 2 17 6 0
27 -46 48 -102z m1618 30 c-35 -36 -16 -34 -235 -29 -60 1 -61 1 -43 21 12 13
25 18 41 14 15 -4 33 1 51 14 25 18 29 18 51 4 17 -11 26 -12 35 -3 18 18 29
13 17 -9 -14 -26 2 -26 25 0 10 12 24 19 31 16 7 -3 15 5 18 17 5 21 6 21 23
5 16 -17 15 -19 -14 -50z m-1443 -9 c0 -5 6 -6 13 -4 7 3 20 -7 29 -22 15 -24
18 -25 18 -8 0 17 2 17 10 5 7 -11 10 -1 11 35 0 37 3 45 9 30 14 -32 11 -91
-4 -104 -18 -15 -54 2 -138 67 -49 38 -56 47 -41 53 18 6 93 -35 93 -52z
m1235 40 c11 -17 -1 -21 -15 -4 -8 9 -8 15 -2 15 6 0 14 -5 17 -11z m-215 -24
c0 -8 -2 -15 -4 -15 -2 0 -6 7 -10 15 -3 8 -1 15 4 15 6 0 10 -7 10 -15z
m-1500 -29 c0 -8 5 -16 11 -18 6 -2 -7 -16 -31 -31 l-41 -28 3 33 c2 20 8 32
16 30 7 -1 15 5 18 13 8 19 24 20 24 1z m894 -8 c-8 -28 -12 -33 -20 -25 -9 8
6 47 17 47 6 0 7 -10 3 -22z m17 -61 c-17 -17 -24 -1 -10 25 12 21 14 21 17 4
2 -10 -1 -23 -7 -29z m79 36 c0 -10 -32 -43 -42 -43 -5 0 -1 11 9 25 17 23 33
32 33 18z m99 -23 c4 0 12 5 19 12 9 9 12 8 12 -6 0 -13 5 -16 20 -11 11 3 20
2 20 -3 0 -17 -23 -19 -85 -7 l-60 11 30 16 c25 14 31 14 33 2 2 -8 7 -14 11
-14z m-1194 -57 c-5 -15 21 -18 30 -3 3 5 16 15 28 22 19 10 18 7 -7 -27 -30
-39 -25 -39 29 0 67 49 72 34 7 -20 -31 -26 -35 -27 -77 -15 -39 11 -44 16
-39 34 6 26 12 55 14 76 1 8 6 -1 11 -20 4 -19 6 -41 4 -47z m514 45 c1 12 6
22 12 22 6 0 8 -7 5 -16 -3 -9 -6 -40 -6 -70 0 -30 -4 -54 -8 -54 -15 0 -32
49 -32 89 0 45 12 62 21 29 l7 -23 1 23z m2341 -43 c42 -31 53 -32 44 -3 -5
18 2 15 42 -19 27 -23 62 -55 77 -71 18 -19 35 -28 47 -25 10 3 21 0 24 -6 5
-8 -17 -12 -68 -13 -42 -1 -82 -2 -90 -2 -7 -1 -37 31 -66 69 -29 39 -57 76
-62 83 -18 22 16 14 52 -13z m-2294 -22 c-3 -16 -8 -46 -11 -68 l-5 -40 12 32
c16 39 28 52 28 30 0 -21 -30 -97 -39 -97 -3 0 -11 8 -17 18 -8 13 -7 34 5 85
9 37 20 67 24 67 5 0 6 -12 3 -27z m284 1 c0 -8 -4 -14 -10 -14 -5 0 -10 9
-10 21 0 11 5 17 10 14 6 -3 10 -13 10 -21z m758 -22 c6 -18 -15 -14 -22 4 -4
10 -1 14 6 12 6 -2 14 -10 16 -16z m841 -24 c10 -24 32 -100 50 -171 17 -70
40 -151 51 -180 33 -88 110 -344 110 -364 0 -14 -15 -26 -53 -41 -29 -12 -55
-22 -58 -22 -3 0 -20 14 -38 31 -39 37 -101 64 -201 89 -77 20 -101 19 -56 -1
28 -13 37 -35 10 -25 -9 3 -31 6 -49 6 -32 0 -36 4 -76 80 -23 45 -64 108 -90
142 -66 81 -62 83 40 25 32 -18 32 -18 22 2 -21 38 -10 32 68 -38 43 -39 82
-71 86 -71 4 0 5 14 3 30 -3 17 -3 30 -1 30 2 0 17 -15 34 -32 l30 -33 -6 53
c-6 51 -5 53 15 47 11 -3 20 -5 20 -3 0 3 -13 43 -29 91 -17 48 -28 87 -26 87
1 0 17 -14 35 -30 18 -17 34 -29 36 -27 2 2 -5 29 -15 60 -16 46 -17 57 -6 57
8 0 17 -4 20 -10 3 -5 11 -10 17 -10 6 0 7 19 3 53 -6 42 -5 50 6 40 21 -21
28 -15 19 17 -6 22 -5 32 6 38 11 6 12 15 4 42 -11 38 -13 80 -5 80 3 0 14
-19 24 -42z m-1589 -3 c0 -8 -61 -37 -67 -32 -3 3 8 12 24 21 29 16 43 19 43
11z m-839 -29 c-6 -7 -22 -11 -36 -8 -38 7 -30 22 11 22 30 0 34 -3 25 -14z
m2605 -78 c31 -55 49 -77 52 -65 5 25 18 21 32 -12 12 -31 5 -56 -28 -93 -23
-27 -6 -22 43 12 38 26 44 28 56 14 10 -12 7 -21 -21 -49 -25 -25 -29 -35 -18
-35 9 0 20 5 24 11 3 6 15 8 26 6 13 -4 22 2 30 19 6 13 14 24 17 24 3 0 14
-35 24 -79 l18 -79 -25 -46 c-27 -52 -42 -136 -28 -162 8 -14 12 -13 28 15 22
37 31 39 36 9 3 -20 7 -18 34 22 38 54 81 95 71 67 -5 -14 -3 -16 11 -8 9 5
26 19 36 30 37 40 35 20 -5 -57 -32 -61 -42 -93 -46 -145 -4 -47 -2 -67 6 -67
6 0 11 5 11 10 0 6 4 10 8 10 5 0 6 -19 2 -42 -3 -24 -10 -42 -15 -41 -6 1
-35 11 -65 22 -30 11 -68 23 -85 27 -29 7 -28 8 20 19 l50 11 -63 13 c-34 7
-60 16 -57 21 3 5 -6 20 -19 33 -14 14 -28 38 -31 54 -4 15 -33 98 -65 183
-32 85 -81 215 -108 288 -49 129 -55 159 -19 105 l18 -28 -5 33 c-3 17 -4 32
-2 32 2 0 25 -37 52 -82z m-1727 0 c-38 -76 -37 -74 -51 -60 -9 9 -2 25 26 67
21 30 42 55 47 55 5 0 -5 -28 -22 -62z m2126 2 c4 -6 -10 -10 -34 -10 -22 0
-43 5 -46 10 -4 6 10 10 34 10 22 0 43 -4 46 -10z m-1985 -24 c0 -2 -8 -10
-17 -17 -16 -13 -17 -12 -4 4 13 16 21 21 21 13z m1098 -29 c3 -16 1 -17 -17
-7 -25 13 -28 33 -4 28 10 -2 19 -11 21 -21z m-2068 -62 c0 -30 -19 -22 -49
19 -41 58 -39 64 9 26 22 -17 40 -38 40 -45z m1981 51 c30 -8 65 -19 77 -25
27 -14 31 -55 5 -47 -10 3 -40 10 -66 17 -26 6 -61 24 -77 39 -34 32 -39 45
-12 35 9 -3 42 -12 73 -19z m6818 -231 c0 -18 -37 59 -57 121 -41 122 -30 134
13 14 25 -69 45 -129 44 -135z m-7924 159 c-28 -57 -38 -59 -49 -12 -5 22 0
32 31 57 21 17 39 27 41 21 2 -6 -8 -36 -23 -66z m139 64 c-5 -7 -24 -35 -43
-63 l-36 -50 50 42 c28 24 52 38 53 33 2 -6 -2 -17 -8 -25 -20 -25 7 -18 44
10 18 14 36 25 39 25 3 0 -6 -21 -20 -47 -14 -27 -20 -42 -13 -35 29 26 28 9
-7 -65 -182 -400 -264 -750 -279 -1198 -6 -179 -12 -215 -44 -255 -28 -36 -44
-10 -24 39 18 42 13 50 -10 16 -9 -14 -23 -25 -30 -25 -13 0 -15 14 -30 190
-9 101 -36 534 -41 665 -8 188 -30 394 -56 513 -33 156 -34 165 -11 185 27 25
39 4 17 -31 -9 -16 1 -9 26 18 l41 45 -6 -39 c-4 -30 -2 -36 6 -28 21 21 29
13 23 -25 l-5 -38 18 37 c28 57 35 58 28 3 -4 -36 -3 -44 4 -27 14 34 23 26
17 -14 -5 -28 -3 -33 7 -25 16 13 76 -22 76 -46 0 -9 3 -13 7 -9 4 4 17 -12
30 -36 l22 -43 1 38 c0 21 -5 47 -10 57 -16 29 1 59 81 143 67 69 103 98 83
65z m-1299 -76 c-3 -3 -18 7 -33 23 l-27 28 33 -23 c18 -12 31 -25 27 -28z
m315 -17 c0 -8 -4 -15 -10 -15 -5 0 -10 7 -10 15 0 8 5 15 10 15 6 0 10 -7 10
-15z m2969 -31 c-20 -22 -146 -104 -160 -104 -2 0 -4 22 -4 50 0 53 13 66 30
33 10 -20 12 -20 75 13 79 40 91 42 59 8z m691 -115 c0 4 -11 18 -25 31 -32
30 -26 35 18 16 33 -13 35 -13 30 2 -5 12 2 10 27 -8 l34 -24 -50 -22 c-67
-31 -84 -29 -127 10 -57 52 -45 61 28 23 36 -19 65 -31 65 -28z m133 36 c-4
-15 -36 -12 -41 3 -3 9 3 13 19 10 13 -1 23 -7 22 -13z m-4418 -201 c-3 -104
-3 -105 17 -88 19 18 19 18 12 -34 -7 -56 -2 -62 29 -34 20 16 20 16 14 -1 -4
-11 -10 -30 -13 -43 -3 -13 -12 -24 -19 -24 -23 0 -125 50 -125 61 0 44 71
269 84 269 2 0 3 -48 1 -106z m2179 84 c3 -13 6 -40 6 -60 0 -24 5 -38 13 -38
7 0 39 -89 81 -232 38 -128 89 -294 113 -368 24 -74 59 -196 79 -270 33 -126
94 -408 94 -435 0 -9 -66 -16 -237 -25 -131 -7 -292 -15 -358 -19 -76 -5 -129
-4 -143 3 -22 9 -22 11 -5 17 14 5 10 8 -17 14 -19 4 -40 12 -47 17 -7 5 -27
7 -45 3 -29 -7 -31 -6 -19 9 16 19 1 22 -30 5 -11 -6 -25 -9 -31 -7 -17 6 57
73 102 93 22 10 40 22 40 28 0 15 -72 -2 -103 -24 -37 -27 -46 -16 -18 21 27
38 16 39 -22 3 l-29 -28 7 25 c7 24 18 40 81 118 38 46 9 42 -54 -8 -53 -41
-89 -84 -116 -137 -9 -18 -20 -33 -24 -33 -19 0 -35 214 -29 393 9 262 41 486
101 717 44 168 54 180 76 90 14 -59 27 -71 35 -33 4 15 10 37 15 48 7 16 9 12
9 -20 1 -29 4 -36 11 -25 6 10 10 -9 12 -60 3 -66 5 -72 15 -50 14 29 13 30
20 -35 6 -62 22 -95 23 -47 0 49 14 32 40 -48 13 -39 25 -69 27 -66 2 2 0 30
-6 62 -16 83 -13 93 12 54 20 -31 22 -33 25 -14 2 12 -4 50 -13 84 -9 34 -14
64 -11 67 2 3 14 -14 26 -38 l22 -43 13 25 13 24 10 -25 c5 -14 13 -41 17 -60
l8 -35 12 35 12 35 20 -46 c18 -41 61 -94 70 -86 2 2 -8 41 -22 87 -14 46 -25
86 -25 89 0 3 14 -10 29 -29 38 -45 49 -32 27 31 -19 50 -16 73 6 51 23 -23
30 -12 23 41 l-7 52 21 -19 21 -19 0 81 c0 79 11 107 24 60z m2223 -43 c-29
-26 -47 -32 -47 -16 0 13 41 41 60 41 10 -1 6 -9 -13 -25z m-595 -199 c-7 -94
-14 -243 -17 -331 -8 -224 -32 -518 -55 -659 -11 -65 -21 -120 -23 -122 -1 -2
-42 -4 -91 -6 l-88 -3 2 160 c1 211 -28 380 -114 660 -17 54 -21 105 -8 105 5
0 17 -7 28 -15 36 -27 38 -15 3 21 -40 43 -16 34 55 -21 52 -39 56 -41 56 -21
0 7 -21 32 -46 56 -25 23 -43 44 -41 47 7 6 64 -24 103 -53 49 -38 54 -33 54
59 1 82 1 82 19 60 11 -13 22 -23 25 -23 3 0 6 23 6 52 0 40 3 49 12 40 19
-19 25 -14 32 24 6 28 10 33 21 24 11 -9 17 0 34 45 12 31 21 62 21 69 0 18
14 29 19 15 2 -7 -1 -90 -7 -183z m-3962 142 l-9 -33 19 24 c26 30 25 12 -3
-64 -17 -45 -28 -61 -47 -66 -14 -4 -19 -7 -12 -8 6 -1 12 -5 12 -11 0 -5 -22
-10 -50 -10 -52 0 -58 6 -39 42 11 20 13 20 24 5 11 -16 16 -12 40 35 32 62
65 118 70 118 2 0 0 -15 -5 -32z m4308 0 c3 -25 5 -26 29 -17 23 9 30 6 49
-18 27 -32 38 -74 29 -103 -5 -15 -3 -18 9 -14 20 8 20 -3 1 -36 -20 -35 -18
-46 3 -27 27 25 30 22 26 -30 l-4 -48 20 45 c27 56 28 57 44 35 12 -17 14 -16
25 18 7 20 18 37 25 37 7 0 23 11 36 25 12 13 26 22 31 20 4 -3 26 16 48 41
23 26 41 42 41 36 0 -5 -22 -61 -48 -124 -27 -62 -75 -179 -106 -261 -32 -81
-62 -150 -67 -153 -5 -3 -34 4 -64 15 -30 11 -55 17 -55 11 0 -5 22 -28 49
-51 l49 -42 -30 -71 c-52 -124 -174 -368 -225 -451 l-49 -80 -85 -7 c-46 -4
-87 -4 -90 0 -3 4 0 50 8 102 11 68 17 243 22 610 4 283 8 507 9 498 1 -10 8
-18 15 -18 14 0 37 -61 37 -95 0 -11 5 -15 14 -12 10 4 16 -5 21 -30 5 -26 9
-33 18 -24 19 19 22 13 19 -36 l-3 -48 27 30 26 30 -6 -40 c-3 -22 -9 -58 -12
-80 l-5 -40 20 24 c12 13 24 35 27 50 12 53 15 57 26 31 11 -24 11 -24 21 15
12 48 16 53 26 36 6 -9 11 -1 15 23 8 43 -8 140 -35 208 -18 46 -18 49 -2 46
11 -2 19 -14 21 -30z m-1720 -100 c30 -30 34 -31 43 -15 16 28 26 20 33 -27 7
-43 5 -46 -36 -84 -24 -22 -41 -43 -38 -45 3 -3 31 10 63 29 57 34 87 42 87
25 0 -4 -17 -20 -37 -34 -35 -24 -71 -67 -57 -67 3 0 25 14 49 30 24 17 46 30
49 30 3 0 6 -11 6 -25 0 -30 25 -34 33 -5 3 11 10 20 17 20 6 0 8 -4 5 -10 -8
-13 1 -13 26 0 27 15 25 -5 -3 -24 -39 -28 -14 -25 47 4 33 16 62 27 64 24 7
-7 -46 -49 -106 -84 -68 -39 -104 -93 -115 -172 -9 -69 -1 -93 19 -54 16 30
30 34 35 9 2 -13 17 0 48 45 29 41 46 58 48 48 3 -14 9 -12 34 9 17 14 32 24
34 23 2 -2 -10 -31 -25 -63 -50 -105 -68 -201 -35 -188 14 5 15 0 10 -38 -6
-39 -5 -42 7 -26 20 24 27 21 27 -11 0 -34 28 -79 31 -49 1 9 3 22 4 27 1 6 3
27 4 48 1 30 3 34 12 20 17 -30 29 -20 29 23 0 34 3 39 13 30 17 -14 27 -4 27
26 0 16 5 23 16 21 11 -2 22 14 38 57 21 56 23 58 30 32 3 -15 4 -32 1 -37 -3
-5 -10 -107 -15 -227 -9 -204 -28 -485 -33 -489 -1 -1 -48 -4 -104 -8 l-102
-6 -11 57 c-48 245 -109 442 -256 833 -51 134 -54 148 -45 186 10 39 2 129
-14 155 -13 20 11 7 43 -23z m-2678 -107 c0 -5 -25 -11 -55 -13 -39 -2 -55 1
-55 10 0 8 18 12 55 12 30 0 55 -4 55 -9z m3833 -80 c-1 -2 -9 -1 -18 2 -18 8
-20 40 -2 68 11 18 12 16 17 -23 3 -24 4 -45 3 -47z m-3482 57 c-9 -25 -31
-36 -31 -16 0 15 19 38 32 38 4 0 4 -10 -1 -22z m-461 -52 c0 -2 -18 -16 -41
-30 -40 -27 -58 -29 -44 -6 10 17 85 49 85 36z m3631 -263 c45 -50 48 -58 69
-164 44 -229 61 -443 41 -534 l-6 -30 -178 -10 -177 -10 0 352 c0 307 2 352
15 347 14 -6 35 -61 35 -93 0 -8 6 -11 15 -7 11 4 15 -1 15 -19 0 -18 5 -25
19 -25 17 0 18 -6 14 -42 l-4 -43 19 23 c24 26 35 28 29 5 -3 -10 -8 -40 -12
-68 -6 -47 -5 -49 9 -30 9 11 21 37 26 59 11 35 12 37 25 20 13 -18 14 -16 15
14 0 26 4 32 18 30 15 -3 17 6 15 77 -1 56 -8 95 -22 128 -23 53 -16 60 20 20z
m-3710 -29 c18 -16 26 -44 12 -44 -9 0 -92 64 -93 72 0 11 61 -10 81 -28z m-4
-80 c33 -32 34 -32 48 -11 35 49 25 -5 -28 -166 -72 -217 -122 -418 -143 -572
-9 -66 -18 -125 -19 -131 -2 -6 -52 -16 -117 -23 -62 -7 -139 -17 -172 -22
-32 -6 -60 -9 -62 -7 -2 3 -6 164 -10 359 -6 352 -6 355 14 356 17 1 21 -6 27
-48 5 -36 11 -49 20 -45 9 3 15 -4 17 -22 2 -20 8 -26 22 -24 17 3 18 -1 12
-40 l-6 -43 19 23 c11 12 22 22 25 22 4 0 4 -10 2 -22 -3 -13 -8 -41 -11 -63
-6 -36 -5 -38 9 -25 8 8 22 33 30 55 14 40 14 40 24 15 10 -24 11 -23 11 12 1
39 14 57 28 36 5 -8 10 1 14 26 7 43 -9 130 -35 189 -19 44 -9 47 35 10 18
-16 30 -22 25 -15 -4 6 -3 12 1 12 5 0 22 -25 37 -57 27 -52 30 -55 43 -37 12
16 15 17 23 4 5 -8 11 -19 13 -25 9 -21 21 7 25 58 5 66 -21 123 -74 164 -115
88 -135 118 -49 71 51 -27 74 -26 40 2 -22 18 -19 33 4 20 25 -13 44 -13 36 0
-9 15 7 12 29 -5 32 -24 41 -17 15 12 l-24 26 34 -19 c19 -10 49 -33 68 -50z
m418 -234 c-20 -357 -36 -584 -45 -593 -5 -5 -329 -47 -367 -47 -24 0 118 664
153 718 21 32 34 27 35 -15 0 -35 1 -36 11 -15 17 33 28 27 28 -17 0 -44 8
-71 21 -71 5 0 9 28 9 62 0 60 0 61 19 44 19 -17 20 -17 23 21 2 29 7 37 20
35 12 -2 19 7 24 33 4 25 10 33 18 26 8 -7 17 4 31 35 11 24 22 40 26 36 4 -4
1 -117 -6 -252z m4804 -175 l153 -140 -78 -7 c-113 -9 -705 -30 -711 -25 -2 3
14 34 36 71 69 112 129 242 200 430 l11 28 118 -109 c64 -60 186 -172 271
-248z m-6099 -815 c0 -13 -11 -13 -30 0 -12 8 -11 10 8 10 12 0 22 -4 22 -10z
m148 -21 l50 -10 7 -112 c3 -62 11 -130 17 -151 8 -33 7 -43 -10 -65 -21 -28
-49 -38 -63 -24 -5 5 -2 29 7 57 19 55 14 118 -12 147 -9 10 -43 29 -76 40
-32 12 -58 25 -58 28 0 4 14 20 30 36 17 16 30 37 30 47 0 21 11 22 78 7z
m262 -34 c91 -10 100 -13 100 -38 0 -12 7 -69 17 -126 l17 -103 -33 -30 -32
-29 27 -21 27 -22 -28 -23 c-29 -25 -28 -29 7 -47 27 -14 31 -49 6 -54 -11 -2
-18 3 -18 12 0 18 -35 29 -76 24 -25 -3 -29 -7 -26 -30 2 -18 -2 -28 -11 -28
-22 0 -37 22 -37 54 0 18 -15 51 -37 83 -36 52 -36 53 -18 73 18 20 18 23 1
68 -11 28 -20 89 -23 151 l-6 104 44 -6 c24 -4 69 -9 99 -12z m389 -41 c2 -2
0 -24 -6 -49 -10 -44 -10 -46 17 -60 16 -8 30 -20 33 -27 2 -7 2 -62 0 -123
-4 -87 -9 -116 -24 -137 -23 -33 -24 -47 -4 -54 22 -9 8 -24 -21 -24 -14 0
-24 -3 -22 -7 2 -5 10 -21 18 -37 13 -25 12 -29 -4 -41 -19 -15 -14 -35 9 -35
8 0 16 -4 20 -9 8 -14 -18 -91 -30 -91 -10 0 -85 48 -85 54 0 2 7 23 15 46 27
76 85 322 85 360 0 43 -14 60 -51 60 -31 0 -41 -18 -33 -59 5 -24 1 -33 -30
-56 -39 -30 -44 -46 -21 -65 19 -16 10 -30 -19 -30 -20 0 -24 8 -35 63 -20 95
-19 99 17 123 l33 23 -30 16 c-41 21 -61 63 -61 127 l0 53 113 -8 c61 -5 114
-11 116 -13z m361 -25 c102 -6 189 -14 193 -19 5 -4 -6 -21 -23 -37 -28 -26
-31 -33 -21 -52 7 -11 16 -21 21 -21 17 0 11 -28 -12 -53 -13 -14 -33 -37 -46
-52 -17 -21 -28 -26 -47 -21 -30 8 -34 -10 -5 -19 11 -3 20 -11 20 -17 0 -19
-136 -2 -185 23 -50 25 -54 32 -40 77 14 47 -66 16 -90 -34 -19 -41 -25 -43
-25 -6 0 18 13 44 36 70 32 38 34 43 20 58 -9 8 -14 19 -11 24 3 4 -2 26 -10
49 l-14 41 27 0 c15 0 110 -5 212 -11z m503 -36 c11 -6 -1 -350 -13 -372 -9
-18 -47 -35 -95 -43 -16 -3 -20 -11 -20 -47 0 -36 -5 -47 -28 -65 -26 -19 -30
-19 -54 -6 -33 18 -47 48 -15 31 33 -18 49 -13 62 19 10 25 10 34 -2 52 -9 14
-13 38 -10 61 4 34 0 41 -43 82 l-48 44 6 83 c4 46 10 105 13 132 l7 48 116
-7 c64 -4 119 -9 124 -12z m354 -17 c13 -13 16 -228 4 -260 -10 -24 -16 -27
-39 -23 -62 12 -65 12 -68 -8 -1 -10 -13 -26 -25 -35 -18 -14 -20 -20 -10 -38
18 -33 13 -42 -26 -59 -21 -8 -41 -20 -45 -27 -5 -8 -10 -8 -19 1 -16 16 -4
42 26 53 35 13 31 26 -14 54 -38 24 -49 44 -65 119 -8 33 1 34 48 6 41 -24 43
-21 20 23 -13 25 -14 36 -5 51 16 25 7 33 -24 19 -14 -7 -27 -12 -29 -12 -2 0
-3 34 -3 76 l0 76 134 -4 c73 -3 136 -8 140 -12z m243 -6 c60 -1 63 -2 45 -16
-16 -12 -18 -18 -7 -34 17 -28 15 -40 -8 -40 -11 0 -20 -3 -20 -8 0 -4 9 -15
20 -25 16 -13 20 -29 20 -74 0 -32 4 -65 10 -73 5 -9 5 -19 -2 -27 -18 -22
-38 -15 -49 17 -14 38 -32 38 -58 1 -16 -22 -100 -81 -116 -81 -5 0 -15 352
-9 361 3 6 27 8 58 5 28 -3 80 -5 116 -6z m476 -17 l141 -6 -4 -76 c-8 -136
-21 -181 -66 -226 -41 -41 -63 -36 -33 7 22 31 20 54 -6 72 -27 19 -38 20 -38
4 0 -16 -41 -58 -56 -58 -7 0 -22 14 -34 31 -19 25 -27 29 -51 24 -22 -5 -29
-3 -29 9 0 9 5 16 11 16 6 0 9 8 7 18 -2 11 -15 19 -37 22 -19 3 -36 10 -38
17 -3 7 3 9 16 6 17 -4 21 -1 21 20 0 38 -19 47 -62 30 -43 -17 -48 -39 -23
-100 21 -50 19 -89 -7 -113 -18 -17 -20 -24 -11 -39 12 -20 0 -41 -23 -41 -9
0 -10 10 -3 38 5 20 9 90 9 156 0 65 5 136 12 157 l11 39 76 0 c42 0 139 -3
217 -7z m739 -18 c88 -3 357 -8 597 -11 l438 -7 -7 -26 c-3 -14 -11 -35 -17
-46 -6 -11 -10 -62 -10 -113 2 -104 15 -132 66 -132 31 0 36 -11 12 -31 -10
-8 -13 -21 -9 -36 4 -19 1 -23 -18 -23 -27 0 -47 17 -47 40 0 40 -21 48 -194
69 -151 19 -171 20 -186 6 -21 -19 -40 -19 -67 0 -20 14 -22 13 -25 -2 -6 -31
8 -123 20 -135 7 -7 36 -15 65 -18 46 -4 52 -8 56 -30 3 -24 2 -24 -16 -7 -15
13 -34 17 -79 15 -32 -1 -69 1 -81 5 -17 6 -26 2 -39 -18 -16 -24 -16 -27 1
-45 10 -11 15 -28 12 -39 -7 -28 12 -49 48 -53 l30 -3 -24 -24 c-21 -21 -29
-23 -74 -17 -65 9 -67 11 -67 50 0 85 -39 122 -97 92 -28 -14 -32 -14 -68 12
-49 35 -107 36 -152 3 -41 -31 -56 -70 -38 -104 21 -40 6 -51 -54 -38 -29 6
-70 11 -92 11 -46 0 -45 14 2 24 38 7 102 53 94 67 -4 5 -28 9 -55 9 -47 0
-49 1 -40 23 5 12 16 48 26 80 14 49 15 60 4 67 -24 15 -48 -8 -57 -53 -7 -33
-13 -43 -31 -45 -25 -4 -27 1 -10 28 11 17 9 24 -19 52 l-32 32 -27 -27 c-15
-15 -37 -27 -50 -27 -13 0 -24 -4 -24 -10 0 -37 -17 -59 -40 -53 -11 3 -20 6
-20 7 0 2 11 30 25 64 30 75 31 98 5 112 -26 14 -40 5 -40 -25 0 -21 -4 -24
-42 -23 -27 0 -51 7 -63 18 -11 10 -29 20 -40 22 -14 3 -19 10 -16 23 5 30 21
225 21 268 l0 38 193 -6 c105 -3 264 -8 352 -10z m1375 -35 c8 -16 7 -26 -5
-42 -10 -16 -15 -46 -15 -101 0 -94 -15 -108 -61 -58 -34 37 -63 38 -67 1 -1
-14 -10 -42 -19 -62 -13 -30 -19 -36 -30 -27 -17 15 -17 34 2 49 20 17 19 43
-3 63 -15 13 -25 15 -53 7 -18 -6 -38 -10 -42 -10 -9 0 1 177 10 193 2 4 65 7
138 7 124 0 135 -1 145 -20z m178 3 c-6 -34 -98 -25 -98 8 0 5 23 9 51 9 43 0
50 -3 47 -17z m-3976 -195 c0 -7 2 -17 3 -23 2 -5 3 -15 4 -21 0 -6 16 -15 33
-20 19 -6 38 -20 45 -34 14 -29 37 -186 32 -215 -7 -34 -33 -24 -39 15 l-5 35
-95 -2 c-62 0 -98 3 -102 10 -4 7 -8 32 -8 57 -1 25 -5 65 -10 90 -10 56 1 80
39 80 16 0 39 9 52 20 28 22 48 26 51 8z m2383 -558 c57 0 105 -18 105 -39 0
-15 -183 -21 -349 -11 -91 5 -199 11 -240 12 -49 2 -76 7 -79 16 -3 9 40 12
195 12 173 0 202 2 228 18 26 16 33 17 55 5 14 -7 52 -13 85 -13z"/>
<path d="M11990 5806 c-100 -42 -257 -144 -314 -205 -35 -36 -31 -38 21 -10
l38 21 -30 -23 c-86 -65 -263 -280 -292 -354 -6 -16 -4 -16 23 1 48 29 74 56
74 76 0 14 8 18 38 18 l37 1 -22 18 c-34 28 -29 41 9 30 18 -5 41 -9 52 -9 18
0 18 1 3 18 -10 10 -17 20 -17 23 0 2 27 2 61 1 55 -4 61 -2 66 18 5 18 11 21
34 16 16 -3 44 -9 62 -12 l32 -7 -39 32 c-48 38 -24 42 38 6 26 -15 50 -23 60
-19 15 6 14 10 -10 35 -32 33 -29 35 26 13 23 -9 43 -14 47 -11 8 8 -125 145
-148 152 -31 10 -22 22 28 38 54 18 69 16 23 -3 -17 -7 -29 -16 -28 -20 4 -12
198 -170 208 -170 5 0 17 11 27 24 15 19 23 22 37 14 38 -21 24 2 -34 56 -34
31 -58 56 -54 56 4 0 48 -28 98 -62 88 -61 90 -61 69 -27 -79 126 -68 139 32
39 83 -83 101 -90 69 -29 -22 43 -10 48 22 10 32 -38 44 -34 17 6 -38 54 -36
58 8 18 53 -49 107 -83 151 -95 32 -10 32 -9 -20 43 -61 62 -68 80 -14 39 155
-118 164 -124 142 -83 -13 25 -10 25 38 6 34 -13 31 -9 -38 56 -41 39 -99 85
-129 102 -48 27 -52 31 -32 38 11 5 21 11 21 14 0 16 -77 35 -140 35 -38 0
-70 4 -70 9 0 5 21 15 48 22 l47 14 -110 5 c-71 3 -104 8 -92 14 9 4 17 12 17
17 0 20 -55 7 -114 -26 -35 -19 -67 -35 -71 -35 -5 0 6 16 25 35 19 19 32 35
29 35 -2 -1 -29 -11 -59 -24z m178 -95 c41 -8 60 -17 51 -25 -2 -2 -41 1 -86
6 -48 5 -105 5 -140 -1 -55 -8 -73 -7 -62 4 8 7 109 23 154 23 22 1 59 -3 83
-7z"/>
<path d="M9100 5681 c14 -11 28 -21 33 -21 4 0 7 -4 7 -10 0 -5 -23 -7 -52 -4
-29 2 -47 2 -40 -2 29 -14 6 -21 -85 -27 -101 -5 -167 -22 -145 -36 8 -4 -28
-27 -94 -60 -58 -29 -103 -55 -101 -58 3 -2 14 0 24 5 10 5 49 15 87 21 38 7
78 17 88 22 42 23 14 -20 -57 -85 -42 -38 -74 -71 -71 -73 6 -7 148 76 212
123 32 24 60 41 63 39 2 -3 -13 -24 -35 -47 l-39 -42 35 25 c112 81 168 119
174 119 15 0 3 -21 -39 -68 -42 -46 -84 -122 -69 -122 4 0 40 30 80 66 41 36
74 62 74 57 0 -5 -14 -22 -31 -39 -17 -16 -40 -42 -52 -59 l-20 -30 29 28 c39
36 50 35 23 -3 -26 -35 -18 -52 12 -25 17 17 22 17 30 5 8 -13 11 -13 22 0 30
36 127 120 138 120 7 0 -5 -18 -26 -40 -21 -22 -35 -40 -30 -40 4 0 32 18 61
40 29 22 56 40 59 40 3 0 -21 -35 -55 -78 -33 -43 -60 -81 -60 -85 0 -5 15 4
34 18 22 17 37 22 41 15 4 -7 21 0 48 20 55 40 69 38 27 -5 -38 -39 -31 -45
15 -15 36 24 49 25 41 4 -5 -12 -1 -14 15 -9 18 6 20 4 15 -13 -6 -17 -2 -20
36 -19 91 0 143 -7 156 -20 7 -7 32 -13 55 -13 l41 0 -30 31 c-16 18 -60 55
-99 84 -38 29 -100 80 -138 113 -37 33 -82 65 -100 72 -45 16 -104 45 -157 76
l-45 26 30 -26 c36 -31 23 -33 -42 -7 -26 10 -64 22 -83 25 l-35 7 25 -20z"/>
<path d="M2589 5479 c27 -46 26 -52 -1 -44 -19 6 -16 0 17 -34 21 -22 33 -41
25 -41 -10 0 -9 -4 3 -18 23 -25 21 -35 -4 -22 -34 18 -33 4 1 -20 17 -12 29
-28 26 -35 -2 -7 6 -23 20 -36 28 -26 31 -41 7 -33 -10 3 -5 -2 10 -11 36 -21
28 -31 -12 -17 -42 15 -39 6 4 -12 20 -9 35 -22 35 -32 0 -9 17 -32 38 -50 30
-27 33 -33 18 -34 -18 0 -18 -2 6 -27 14 -16 33 -40 43 -55 16 -25 16 -28 1
-28 -21 0 -21 -1 16 -60 26 -42 33 -48 39 -33 10 30 -2 186 -17 208 -8 11 -14
27 -14 35 0 9 -11 27 -25 40 -19 17 -22 27 -15 41 6 10 10 39 9 66 -1 47 -1
47 -13 20 -14 -33 -26 -26 -27 17 -1 30 -1 30 -9 6 -7 -25 -7 -24 -18 10 l-12
35 5 -35 c4 -25 2 -31 -5 -20 -5 8 -10 27 -10 41 0 15 -9 38 -20 52 -11 14
-23 39 -26 56 -6 30 -24 54 -24 32 0 -22 -20 -10 -26 14 -4 14 -11 24 -17 22
-7 -2 -20 6 -30 17 -16 18 -15 15 2 -15z"/>
<path d="M3146 5475 c-26 -14 -51 -23 -56 -20 -5 3 -17 -9 -26 -27 l-18 -33
-6 25 c-6 23 -8 21 -20 -20 -12 -42 -14 -43 -21 -20 -6 21 -7 18 -8 -17 -1
-32 -7 -48 -28 -68 -15 -14 -31 -25 -35 -25 -5 0 -8 -23 -8 -51 0 -35 -3 -48
-11 -43 -9 5 -10 -1 -5 -21 16 -64 18 -85 8 -85 -6 0 -13 8 -15 18 -3 9 -5
-23 -5 -73 2 -115 3 -120 36 -99 24 16 25 16 18 -2 -7 -19 -26 -109 -26 -125
0 -13 61 -11 99 2 17 6 31 17 31 25 0 9 12 14 36 14 19 0 42 7 51 16 9 8 23
13 32 10 13 -5 13 -4 -1 8 -26 19 -22 27 8 16 38 -15 40 -13 13 16 l-24 25 29
-11 c36 -13 44 -6 21 20 -24 26 -17 32 26 20 18 -6 47 -10 64 -9 28 0 28 1 8
9 -36 14 -27 22 15 15 31 -5 39 -3 39 9 0 18 -12 23 -104 40 l-68 13 65 15
c55 13 60 16 30 17 l-35 2 42 17 c59 24 64 34 13 27 l-45 -5 30 14 c17 9 36
15 43 16 16 0 92 38 92 46 0 5 -17 3 -85 -12 -11 -2 -2 5 20 16 35 17 37 19
10 13 -48 -9 -17 11 49 33 32 10 51 20 42 22 -58 12 -267 -114 -408 -246 -26
-24 -48 -40 -48 -35 0 5 9 18 20 28 16 14 17 21 8 32 -9 11 -9 17 3 24 8 5 20
9 27 9 7 0 10 5 7 10 -3 6 -23 10 -44 10 -30 0 -40 4 -44 20 -4 15 0 20 13 20
10 0 20 -5 22 -11 3 -8 17 -10 42 -5 21 4 35 10 32 14 -4 3 4 12 16 19 22 12
22 12 -11 13 -45 0 -34 10 31 26 36 8 44 13 26 13 -43 1 -33 15 25 33 48 15
49 16 12 11 -22 -2 -48 -7 -57 -10 -32 -8 -19 14 15 25 32 11 32 11 -10 6 -35
-5 -41 -3 -40 13 1 12 -6 19 -21 21 -19 3 -21 6 -11 18 9 11 8 14 -2 14 -8 1
1 7 19 15 18 8 31 19 27 25 -3 5 2 10 12 10 11 0 28 7 39 15 18 14 18 14 -11
15 l-30 0 25 20 25 19 -25 -5 c-22 -5 -20 -1 15 30 48 42 44 44 -19 11z m-143
-311 c-37 -16 -41 -22 -59 -83 l-13 -46 5 48 c7 75 19 92 62 93 l37 1 -32 -13z
m-76 -156 c-3 -8 -6 -5 -6 6 -1 11 2 17 5 13 3 -3 4 -12 1 -19z m53 -99 c-7
-11 -14 -19 -16 -16 -7 7 7 37 17 37 6 0 5 -9 -1 -21z"/>
<path d="M2460 5130 l25 -22 -32 6 c-18 3 -33 2 -33 -2 0 -5 -39 -6 -86 -4
-54 3 -85 1 -81 -5 3 -5 -26 -18 -66 -29 l-72 -19 74 -3 74 -3 -64 -44 c-34
-25 -61 -45 -58 -45 10 0 138 49 167 64 35 18 43 12 15 -10 -16 -13 -15 -13 9
-4 15 5 45 18 67 30 60 30 61 25 4 -29 -62 -56 -70 -82 -15 -48 65 41 69 42
49 20 -9 -11 -15 -22 -12 -25 3 -3 -1 -11 -10 -18 -22 -18 -18 -32 5 -18 17
11 22 10 29 -1 5 -7 10 -9 12 -4 5 12 100 73 113 73 13 0 -35 -39 -48 -40 -5
0 -7 -3 -4 -6 3 -3 24 4 47 16 23 11 41 18 41 16 0 -3 -21 -26 -47 -51 -27
-26 -38 -42 -25 -35 12 6 27 8 32 5 5 -3 24 2 42 11 l33 17 -20 -22 -19 -22
27 6 c18 5 27 3 27 -5 0 -6 5 -8 12 -4 7 5 9 2 6 -8 -5 -11 8 -18 58 -28 35
-8 64 -17 64 -21 0 -4 14 -12 30 -18 17 -5 30 -7 30 -4 0 10 -68 97 -95 123
-15 14 -40 44 -57 67 -16 24 -43 50 -60 59 -16 9 -51 34 -77 57 -25 23 -37 32
-27 19 24 -27 5 -30 -32 -3 -15 10 -38 21 -52 25 l-25 7 25 -21z"/>
<path d="M4227 5081 c-48 -26 -102 -61 -118 -77 -34 -32 -69 -93 -69 -121 0
-10 -9 -31 -20 -48 -11 -16 -20 -42 -20 -58 0 -34 -22 -107 -32 -107 -5 0 -8
-24 -8 -52 l0 -53 80 80 c75 74 79 80 55 83 -38 5 -30 18 20 32 42 12 61 29
33 31 -12 0 27 17 77 34 16 5 17 8 5 15 -11 7 -9 11 13 19 46 18 30 19 -40 5
-85 -18 -100 -13 -43 14 38 18 26 21 -17 5 -7 -3 -13 -1 -13 4 0 5 24 22 53
36 28 14 46 26 40 27 -25 0 -13 18 16 25 18 4 28 11 25 19 -2 7 10 19 28 28
31 16 32 17 8 18 l-25 1 30 25 c27 23 28 25 7 19 -23 -7 -23 -7 -7 19 10 14
16 26 14 26 -2 -1 -44 -22 -92 -49z m-225 -426 c-2 -14 -8 -28 -13 -31 -10 -6
-11 2 -3 34 9 30 22 28 16 -3z"/>
<path d="M2395 4950 c-3 -6 1 -7 9 -4 18 7 21 14 7 14 -6 0 -13 -4 -16 -10z"/>
<path d="M8556 4778 c-3 -13 -7 -43 -10 -68 -6 -47 -64 -457 -91 -640 -35
-239 -55 -383 -55 -399 0 -15 16 -17 164 -16 90 0 167 3 171 6 3 4 -6 85 -20
180 -14 96 -30 208 -35 249 -5 41 -17 120 -25 175 -26 170 -75 514 -75 525 0
20 -20 10 -24 -12z"/>
<path d="M7635 4575 c9 -51 55 -322 81 -480 13 -82 33 -202 44 -265 11 -63 28
-166 39 -228 10 -62 23 -118 28 -123 7 -7 34 1 84 27 41 20 110 49 154 64 72
24 80 30 78 51 -1 13 -70 155 -153 314 -84 160 -192 369 -242 465 -97 187
-122 227 -113 175z"/>
<path d="M8866 3978 c-27 -90 -57 -190 -67 -222 -24 -76 -24 -92 4 -110 32
-20 128 -39 140 -27 6 6 6 92 -2 238 -6 125 -11 240 -11 256 0 57 -17 21 -64
-135z"/>
<path d="M8190 3881 c0 -126 3 -236 6 -245 7 -19 17 -19 102 -5 81 14 84 -12
-43 324 -15 39 -34 89 -42 113 -8 23 -17 42 -19 42 -2 0 -4 -103 -4 -229z"/>
<path d="M10203 4009 c-48 -46 -142 -136 -208 -199 -221 -215 -380 -366 -432
-415 -29 -26 -53 -53 -53 -59 0 -7 32 -39 72 -71 76 -64 202 -201 271 -296 23
-32 44 -58 47 -58 9 0 313 409 308 414 -3 3 -96 -49 -208 -115 -112 -66 -207
-119 -211 -118 -5 2 33 82 84 178 51 96 129 245 174 330 44 85 120 229 167
319 48 90 85 166 82 168 -3 3 -45 -32 -93 -78z"/>
<path d="M7506 3803 c12 -48 142 -434 148 -440 3 -3 38 15 77 41 47 32 69 52
65 62 -6 17 -284 364 -291 364 -3 0 -2 -12 1 -27z"/>
<path d="M9477 3640 c-65 -91 -117 -172 -117 -184 0 -36 100 -111 119 -91 4 6
25 71 45 145 21 74 46 166 57 203 11 38 19 73 17 79 -2 5 -56 -63 -121 -152z"/>
<path d="M8834 1250 c-82 -11 -160 -34 -279 -82 -158 -64 -156 -72 5 -31 89
22 128 26 250 27 167 0 177 -2 440 -109 91 -37 194 -73 230 -81 118 -25 241
-16 381 28 l74 23 -160 6 c-191 8 -272 28 -465 119 -69 32 -152 68 -185 79
-71 23 -205 33 -291 21z"/>
<path d="M8606 1073 c-39 -8 -141 -38 -227 -68 -172 -58 -283 -84 -363 -86
l-51 -1 45 -15 c30 -10 84 -15 165 -15 110 -1 131 3 260 40 231 66 301 77 475
76 85 0 172 -5 193 -11 51 -16 37 3 -22 29 -145 63 -329 83 -475 51z"/>
</g>
</svg>
